<svg xmlns="http://www.w3.org/2000/svg"
 width="200" height="200" viewBox="0 0 200 200">
  <style>
    g {
      fill: #6a6a6a;
    }
    @media (prefers-color-scheme: dark) {
      g {
        fill: white;
      }
    }
  </style>
<g transform="translate(0,200) scale(0.1,-0.1)">
<path d="M965 1889 c-384 -52 -664 -283 -772 -636 -24 -79 -26 -104 -27 -248
0 -122 4 -175 17 -225 128 -474 571 -743 1096 -666 182 27 367 94 489 178 l42
29 0 355 0 354 -182 -2 -183 -3 -3 -256 -2 -257 -48 -20 c-163 -70 -377 -66
-532 10 -78 38 -192 148 -233 224 -60 113 -79 299 -43 433 63 241 283 400 554
401 129 0 298 -64 393 -149 l54 -49 50 47 c28 25 86 79 130 120 l80 74 -60 54
c-120 109 -267 182 -441 218 -97 20 -285 27 -379 14z"/>
</g>
</svg>
